<?xml version="1.0" encoding="UTF-8"?>
<svg id="Layer_1" data-name="Layer 1" xmlns="http://www.w3.org/2000/svg" viewBox="0 0 638.02 504.87">
  <defs>
    <style>
      .cls-1 {
        fill: #39ff14;
      }
    </style>
  </defs>
  <path class="cls-1" d="M396.18,22.26l6.85-1.69c-1.55,29.29-8.98,57.5-13.69,86.6-1.37,24.66-5.98,49.91-11.63,74.1-1.71,3.63-7.97,6.97-11.48,3.9-4.04-3.54-16.34-24.43-19.5-30.32-5.76-10.74-10.59-24.62-15.57-35.86-.91-2.06.79-3.1-3.59-2.41-1.7,23.95-7.49,47.7-11.81,71.34-1.3,7.12,1,14.92-3.82,21.96-1.71,2.49-6.19,2.16-4.94,5.25.97,2.39,2.91,2.41,5.21,1.96,4.59-.9,14.64-7.07,20.02-9.28,25.51-10.45,44.54-16.4,70.84-23.48,6.02-1.62,21.96-9.46,23.26-9.49,1.78-.04,4.3,2,6.7,1.75,7.46-.76,16.85-4.31,24.13-3.63,3.67.34,1.34,4.34,5.02,3.6,4.85-6.08,11.12-9.36,17.22-13.73,8.5-6.09,14.24-10.73,25.92-13.55,4.21-1.02,14.6-1.49,18.54-.13,6.66,2.31,11.69,10.59,11.29,17.92-.91,16.59-24.32,49.73-37.75,60.08,15.52,14.07,30.98,29.69,50.29,38.19,6.05-.53,34.22-21.34,37.92-27.12,12.58-19.66-21.42-16.65-32.09-19.18-38.85-9.19-19.83-45.31,1.31-63.04,10.01-8.39,37.39-26.12,49.77-27.4,52.44-5.46,14.45,37.62-9.44,46.27l5.12-13.71c-18.11-.63-32.93,12.37-44.55,24.85,19.05,8.37,58.54,8.39,68.3,31.13,12.2,28.42-25.82,52.7-44.33,67.43,8.33-2.37,7.88,2.89,12.73,5.21,12.96,6.19,29.3,14.06,40.99,22.55,1.73,1.26,4.14,2.54,4.6,4.82-30.02-2.19-59.3-9.1-87.07-20.28l-4.24.03c-12.9,8.74-28.59,11.3-42.52,17.65-13.02,5.93-24.22,16.88-35.85,22.45-6.63,3.17-15.93,2.75-20.7,9.3l28.5-6.69c28.27-3.61,56.95-6.93,85.63-5.36,17.31.94,62.48,6.18,50.66,33.63-7.07,16.4-56.76,29.3-73.88,33.28,14.76-12.47,42.94-14.7,46.29-37.66-5.33-.04-10.18-4.03-14.72-5.02-69.07-15.19-236.18,34.96-300.3,68.12-39.06,20.21-74.55,46.91-106.05,77.41-7.91-4.55-1.54-14.11,2.57-19.68,20.86-28.26,85.46-65.16,117.75-81.18,19.45-9.65,39.52-18.94,60.64-24.27-2.12-12.12-2.16-24.52-3.54-36.75-1.14-10.09-4.07-16.37-3.4-29.32,1.41-27.25,9.37-55.57,10.34-83.08l-31.72,11.96-5.13-17.1c-6.25,8.03-.54,19.6.65,28.48,1.09,8.12,2.14,12.94,3.54,20.46.56,3-1.54,15.42,3.43,13.61,21.86-8.85.34,14.55-.04,24.04-.3,7.54,2.68,25.36,3.77,34.05,1.05,8.34,2.77,16.67,4.74,24.8l-7.41,3.67-6.33-11.89c-.75-.52-3.58,1.59-4.99.8-6-3.35-8.71-24.03-10.03-31.09-.81-4.37,1.43-9.7-2.82-12.65l-29.85,16.41c-8.35,11.22-8.78,24.72-17.32,35.84-2.28,2.96-20.09,21.19-22.26,22.33-1.74.91-3.23,1.08-5.13.85-3.09-3.18,12.37-44.01,14.98-51.02,9.76-26.28,21.59-52.37,32.66-78.79,8.79-20.97,11.2-39.06,36.27-48.65l-1.61-20.4-3.43,6.84c-6.99-3.03-3.99-10.93-5.16-15.96-.34-1.47-5.1-1.71-3.46-12.42,3.76-24.61,11.69-58.6,17.64-83.5,1.39-5.83,4.92-20.74,7.39-25.19,2.94-5.3,15.06-4.55,19.15-1.28,10.23,8.18,17.55,45.65,23.67,59.47.91,2.05,1.66,4.71,4.25,5.17.15-3.62-.38-7.35.2-10.97,5.54-34.52,11.02-77.11,22.98-109.03,1.13-3,4.05-5.15,4.32-8.57,9.81.81,7.68,15.38,5.12,22.26ZM516.24,173.16c-5.33-.07-17.71-3.93-21.5-.06-5.33,5.45-10.48,31.17-11.08,39.47l21.27-17.3,11.31-22.11ZM349.86,347.16c-.94,7.4,0,17.84,0,25.72,0,.3-4.28,3.57.87,2.59,25.19-4.76,83.2-25.75,106.15-37.91,3.35-1.78,25.67-14.24,26.46-15.55.91-1.52-.08-5.34,1.18-8.23s20.23-17.3,24.31-20.3c5.96-4.38,12.8-9.02,19.42-11.48l-49.73-38.56c-2.16,13.8-4.14,27.89-7.39,41.49-1.18,4.93-6.2,25.85-8.95,27.07-3.45,1.53-2.4-3.24-2.6-3.38-15.22,8.59-8.9-4.44-8.54-12.93.42-10.1-4.38-.62-6.43.92-6.06,4.55-13.37,10.14-19.42,14.4-5.47,3.85-29.02,19.54-34.12,20.77-11.86,2.85-13.32-.29-22.35-4.39,2-4.58.33-8.8,1.07-13.29,2-12.14,8.72-24.16,10.8-35.65,2.31-12.76-.11-29.5,3.02-41.56,3.48-13.43,16.18-19.05,23.82-29.34l3.33-.16,1.78,3.59c15.5-5.58,29.23-9.73,45.81-10.84.97-.07,4.57-3.12,2.97,1.26-1.72,4.7-4.21,11.88-8.17,14.51-9.22,6.12-37.23,12.99-42.33,20.75-3.24,4.94-2.93,13.8-7.8,18.76,12.77-4.15,24.83-10.68,37.73-14.56,1.61-.48,16.31-5.28,13.72-.01-2.09,3.08-9.65,5.2-11.1,7.77-1.76,3.11.08,6.27-3.4,10.32-6.27,7.3-32.64,14.78-37.9,20.4-2.92,3.13-5.04,12.71-5.9,17.23,2.58,2.58,46.15-17.69,54.09-12.42l1.69-1.2,14.54-90.09-18.87,5.98,2.58-11.98c-25.73,8.22-47.72,24.06-74.32,29.43-8.36,33.38-11.65,67.48-17.95,101.21-1.72,9.19-7.05,21.53-8.08,29.65ZM293.14,296.44c-.13-6.55-1.59-12.98-1.72-19.55-.08-4.09,4-9.3-1.57-11.16l-12.02,35.99,15.3-5.28Z"/>
  <path class="cls-1" d="M156.05,32.58c-12.2,13-.62,10.46,2.97,18.45,2.98,6.62,3.55,24.61,1.78,31.73-3.13,12.6-21.63,37.43-29.78,49.09-1.75,2.5-11.78,17.53-12.68,9.62,3.74-7.52,12.68-21.37,13.7-29.2.67-5.13-3.82.17-6.85-.83l-1.73-13.72c-2.6-.7-2.85.68-4.3,1.69-15.45,10.67-47.59,53.32-56.36,70.53-6.1,11.97-13.57,33.79-9.53,46.8,5.63,18.1,18.38,9.65,30.56,3.37,13.37-6.89,56.47-36.02,64.36-47.11,8.51-11.97,8.15-27.32,12.13-41.02,3.51-12.09,20.12-69.84,29.2-73.68l4.24,6.83c-1.12-5.28,13.74-12.11,15.45-10.27-3.04,53.14-27.99,101.92-36,154.28l49.72-23.14c-.7-1.93-3.78.21-5.34-1.86-.67-.89-8.09-19.24-8.29-20.54-2.48-16.76,16.41-61.69,25.94-76.73,11.75-18.55,34.55-45.8,57.19-26.9,5.02,4.19,7.91,16.96,8.97,23.61,11.75,73.61-59.48,119.22-112.9,152.01-15.7,9.64-32.13,18.12-47.87,27.68l-6.65-1.22c-.57-3.55-.42-7.29-.2-10.87,1.04-16.58,9.48-48.36,14.1-64.76.67-2.36,3.13-3.31-1.25-2.97l-30.03,36.85c1.83,2.88,3.76-.71,5.12-1.74,4.75-3.63,9.69-9.44,15.46-11.1-4.32,5.41-9.41,10.8-14.53,15.46-13.74,12.49-42.92,40.96-56.65,49.67-3.72,2.36-15.57,5.85-17.16,8.56-5.6,9.54,3.63,50.1-2.14,63.01-8.56,19.13-6.48-18.59-6.53-21-.3-14.56-1.43-29.21-2.46-43.73-9.68,1.46-21.07-1.9-27.36-9.51-3.32-4.02-9.26-17.35-9.97-22.6-4.09-30.21,26.03-82.1,43.1-106.98,21.93-31.95,58-81.25,95.31-93.34,2.4-.78,8.09-.38,8.57-.85.63-.6.64-14.87,8.69-13.58ZM279.12,81.01c-2.38-2.79-8.25-2.24-11.08.09-4.28,3.51-16.83,26.39-19.67,32.6-6.06,13.28-10.43,26.45-8.17,41.33.96,6.27,3.76,8.84,10.14,7.79l.04-5.13c4.74,2.95,7.32-.61,10.28-4.28,11.62-14.42,22.38-45.21,20.56-63.4-.21-2.1-1.02-7.73-2.11-9Z"/>
  <path class="cls-1" d="M274.86,200.19c.22.39,2.78.3,3.03,1.5,1.21,5.89-7.7,19.85-9.85,25.96-16.23,46.05-30.69,93.13-48.38,137.13-9.34,23.24-22.41,60.24-35.5,80.77-.98,1.54-3.02,5.11-4.99,1.94-.6-.96-5.23-19.49-5.56-21.86-1.6-11.59,2.39-21.82,1.12-33.71-1.15-10.73-3.95-24.29-6.28-34.86-.93-4.21,1.86-12.14-3.82-10.76,0,2.25.05,4.75-.83,6.86-16.01,38.18-32.73,76.16-48.47,114.47-3.52,9.19,6.56,43.88-8.77,36.13-2.31-17.41-.23-36.56-2.07-53.64-4.47-41.43-12.43-84.63-17.04-126.96l-1.61-35.92c-.62-2.34-6.7.98-5.24-3.48.29-.87,9.65-13.19,11.07-14.7,4.88-5.19,11.8-7.73,15.5-13.62,4.92-1.37,13.91,21.38,15.17,25.97,5.34,19.46,4.19,40.5,6.46,60.41.2,1.78.69,8.04,3.21,7.9,9.55-27.54,27.83-51.1,42.8-75.92l12.6-1.27,4.68,18.9,3.39-11.98,3.48,36.54c6.21,2.2,1.83,8.37,4.25,13.16,13.38-21.73,19.27-48.64,28.89-72.27,5.61-13.76,14.75-37.58,23.42-48.59,6.81-8.65,17.12-13.83,23.17-23.13,3.16,5.05-6.64,10.03-3.83,15.03Z"/>
  <path class="cls-1" d="M524.81,8.57l-46.88,25.98c-8.17,6.37-27.4,9.09-34.39,13.62s-2.47,9.24-3.1,14.02c-.54,4.07-5.18,7.02-4.8,11.51,24.35-4.36,45.91-18.92,71.17-18.86l.85,3.41-27.87,18.85c-10.25,13.05-31.73,17.07-44.21,28.28-7.81,7.02-13.88,23.25-15.37,33.48,20.37-6.07,44.85-19.07,66.06-20.54,2.02-.14,7.52-1.17,5.96,2.53-.29.7-7.46,9.23-8.62,10.25-14.79,13.07-58.37,43.53-76.67,46.8-7.18,1.28-15.01,2.1-19.24-4.28.64-37.49,18.4-73.12,26.96-109.39-19.87-11.91.3-24.87,12.64-32.27,29.85-17.91,63.42-21.35,97.52-23.37Z"/>
  <path class="cls-1" d="M531.67,402.9c-1.01,2.47-7.29,3.68-9.95,4.58-6.79,2.31-13.9,4.22-20.91,5.67,6.89-7.31,21.14-9.22,30.86-10.25Z"/>
</svg>